<svg xmlns="http://www.w3.org/2000/svg" viewBox="0 0 32.15 31.03"><g id="Слой_2" data-name="Слой 2"><g id="icons"><path d="M25.64,28a10.2,10.2,0,0,0-3.82-.67A21,21,0,0,0,14,29.1V22.72l.47.51V13.64a10.21,10.21,0,0,1,6.36-2.37l.48-.81a11.14,11.14,0,0,0-7.44,2.64,11.09,11.09,0,0,0-7.45-2.64,14.08,14.08,0,0,0-4.84.83l-.26.09V13c-.82.15-1.33.43-1.33.88V30.41H12.19a2.56,2.56,0,0,0,1.72.62,2.59,2.59,0,0,0,1.73-.62H27.52V13.89l-1.88,3.88ZM13.75,29.11a22.85,22.85,0,0,0-8-1.74A9.79,9.79,0,0,0,2.12,28V11.93a14.33,14.33,0,0,1,4.31-.68,10.36,10.36,0,0,1,6.86,2.39v9.59l.46-.51Z"/><path d="M3.69,14l.16.62a11.67,11.67,0,0,1,7.85.95l.32-.56A12.11,12.11,0,0,0,3.69,14Z"/><path d="M3.69,15.85l.16.62a11.67,11.67,0,0,1,7.85,1l.32-.56A12.11,12.11,0,0,0,3.69,15.85Z"/><path d="M3.69,17.56l.16.61a11.67,11.67,0,0,1,7.85.95l.32-.56A12.14,12.14,0,0,0,3.69,17.56Z"/><path d="M3.69,19.42l.16.62A11.67,11.67,0,0,1,11.7,21l.32-.56A12.11,12.11,0,0,0,3.69,19.42Z"/><path d="M3.69,21.15l.16.61a11.67,11.67,0,0,1,7.85.95l.32-.55A12.11,12.11,0,0,0,3.69,21.15Z"/><path d="M3.69,22.92l.16.62a11.67,11.67,0,0,1,7.85.95l.32-.56A12.11,12.11,0,0,0,3.69,22.92Z"/><path d="M3.69,24.7l.16.62a11.67,11.67,0,0,1,7.85.95l.32-.56A12.11,12.11,0,0,0,3.69,24.7Z"/><path d="M27.49,0,25.56,4h0l-6,12.28-.52,6.46,5.11-4.12,6-12.37h0l1.93-4ZM23.84,18.25,20.93,20.6,19.77,20l.29-3.62.27-.56.53,1.9L22,17l.24,1.44L24,17.85Zm6.3-14.07L27.22,2.76l.71-1.47,2.93,1.42Z"/></g></g></svg>