<svg xmlns="http://www.w3.org/2000/svg" viewBox="0 0 28.5 28.5"><defs><style>.cls-1{fill:#3b5998;}.cls-2{fill:#6d84b4;}.cls-3{fill:#fff;}</style></defs><g id="Слой_2" data-name="Слой 2"><g id="prototip"><g id="Layer_2" data-name="Layer 2"><path class="cls-1" d="M28.5,26.66a1.84,1.84,0,0,1-1.84,1.84H1.84A1.84,1.84,0,0,1,0,26.66V1.84A1.84,1.84,0,0,1,1.84,0H26.66A1.84,1.84,0,0,1,28.5,1.84Z"/></g><g id="Layer_4" data-name="Layer 4"><rect class="cls-2" x="0.84" y="22.29" width="26.81" height="4.15"/></g><g id="Layer_3" data-name="Layer 3"><path class="cls-3" d="M21,26.43H16.14V14.66H13.7V10.6h2.44V8.16c0-3.31,1.37-5.28,5.27-5.28h3.25V6.94h-2c-1.52,0-1.62.57-1.62,1.63v2h3.68l-.43,4.06H21Z"/></g></g></g></svg>