<svg xmlns="http://www.w3.org/2000/svg" viewBox="0 0 22.15 36.91"><g id="Слой_2" data-name="Слой 2"><g id="icons"><g id="Layer_1"><path id="path10" d="M11.07,0A5.58,5.58,0,0,0,9.69,3.66c.06,3.08.43,6.15.46,9.23a20.66,20.66,0,0,1-1.83,8.18c-.35.73-.73,1.44-1.11,2.15L6.1,23a1.85,1.85,0,0,1,.36-3.66l.4,0L6,11.86a11.51,11.51,0,0,0-4.57-8.2A12.69,12.69,0,0,0,0,2.76V29.49H6.17A10.22,10.22,0,0,0,10,35.68a3.48,3.48,0,0,1,1.12,1.23,3.6,3.6,0,0,1,1.13-1.23A10.22,10.22,0,0,0,16,29.49h6.17V2.76a12.69,12.69,0,0,0-1.39.9,11.51,11.51,0,0,0-4.57,8.2l-.9,7.52.4,0A1.85,1.85,0,0,1,16.05,23l-1.11.22c-.38-.71-.76-1.42-1.11-2.15A20.84,20.84,0,0,1,12,12.89c0-3.08.4-6.15.46-9.23A5.54,5.54,0,0,0,11.07,0ZM1.85,6.62a9.49,9.49,0,0,1,2.23,5.06l.74,6.21a3.71,3.71,0,0,0-1.93,2.37h-1V6.62Zm18.45,0V20.26h-1a3.71,3.71,0,0,0-1.93-2.37l.74-6.21A9.49,9.49,0,0,1,20.3,6.62ZM11.07,19.09a21.23,21.23,0,0,0,2,4.59,4.26,4.26,0,0,0-2,1.36,4.12,4.12,0,0,0-2-1.36A20.72,20.72,0,0,0,11.07,19.09Zm-9.22,3h1a3.73,3.73,0,0,0,2.59,2.63l.89.21A10,10,0,0,0,6,27.65H1.85V22.11Zm17.41,0h1v5.54H16.15a10,10,0,0,0-.37-2.7l.89-.21a3.73,3.73,0,0,0,2.59-2.63ZM8.17,25.37a2.3,2.3,0,0,1,2,2.28H7.85A8.6,8.6,0,0,1,8.17,25.37Zm5.81,0a8.6,8.6,0,0,1,.32,2.28H12A2.3,2.3,0,0,1,14,25.37ZM8.06,29.5h2.09v3.88A8.4,8.4,0,0,1,8.06,29.5Zm3.94,0h2.09A8.4,8.4,0,0,1,12,33.38Z"/></g></g></g></svg>