<svg xmlns="http://www.w3.org/2000/svg" viewBox="0 0 26.91 23"><g id="Слой_2" data-name="Слой 2"><g id="icons"><path d="M15.08,20.45l-2.87-8.6H9.42L7.63,5.11,6,11.85H4.1C7.67,17.17,14.43,23,14.43,23s6.71-5.83,10.26-11.15H17.56Z"/><path d="M21.16,0C18.86-.22,15,1.2,14.38,4.89,13.72,1.2,9.91-.22,7.61,0,4.79.33,1.07,1.57,2,7.34a11.1,11.1,0,0,0,1.64,3.81H5.44L7.6,2.32,10,11.15h2.76l2.32,7,2-7h7.87v.35a11.88,11.88,0,0,0,1.85-4.16C27.7,1.57,24,.33,21.16,0Z"/><path d="M24.91,11.85V11.5l-.22.35Z"/><path d="M0,11.15v.7H4.1c-.16-.24-.31-.47-.45-.7Z"/></g></g></svg>