<svg xmlns="http://www.w3.org/2000/svg" viewBox="0 0 99.1 15.62"><defs><style>.cls-1{font-size:15px;font-family:UbuntuCondensed-Regular, Ubuntu Condensed;}.cls-2{fill:#999;}.cls-3{fill:none;stroke:#000;stroke-miterlimit:10;}</style></defs><g id="Слой_2" data-name="Слой 2"><g id="font"><text class="cls-1" transform="translate(17.09 12.7)"><tspan xml:space="preserve">ua     ru     eng</tspan></text><path class="cls-2" d="M5.5,3A5.5,5.5,0,1,0,11,8.54,5.5,5.5,0,0,0,5.5,3Zm3.11,7.33a8.45,8.45,0,0,0,.18-1.46h1.46a4.59,4.59,0,0,1-.35,1.46ZM2.39,6.71a8.45,8.45,0,0,0-.18,1.46H.75A4.65,4.65,0,0,1,1.1,6.71Zm5.47,0a7.78,7.78,0,0,1,.2,1.46H5.87V6.71ZM5.87,6V3.83a1.85,1.85,0,0,1,.49.24,3.23,3.23,0,0,1,.85,1A5.83,5.83,0,0,1,7.65,6ZM3.79,5a3.23,3.23,0,0,1,.85-1,1.85,1.85,0,0,1,.49-.24V6H3.35A6.83,6.83,0,0,1,3.79,5ZM5.13,6.71V8.17H2.94a7.78,7.78,0,0,1,.2-1.46Zm-4,3.66A4.59,4.59,0,0,1,.75,8.91H2.21a8.45,8.45,0,0,0,.18,1.46ZM2.94,8.91H5.13v1.46h-2A7.78,7.78,0,0,1,2.94,8.91Zm2.19,2.2v2.14A1.59,1.59,0,0,1,4.64,13a3.23,3.23,0,0,1-.85-1,6.83,6.83,0,0,1-.44-.94Zm2.08.94a3.23,3.23,0,0,1-.85,1,1.59,1.59,0,0,1-.49.24V11.11H7.65A5.83,5.83,0,0,1,7.21,12.05ZM5.87,10.37V8.91H8.06a7.78,7.78,0,0,1-.2,1.46Zm2.92-2.2a8.45,8.45,0,0,0-.18-1.46H9.9a4.65,4.65,0,0,1,.35,1.46ZM9.52,6H8.42a5.83,5.83,0,0,0-.86-1.73,4.6,4.6,0,0,1,1.31.93A5,5,0,0,1,9.52,6Zm-7.39-.8a4.75,4.75,0,0,1,1.31-.93A5.83,5.83,0,0,0,2.58,6H1.48A5,5,0,0,1,2.13,5.17Zm-.65,5.94h1.1a5.83,5.83,0,0,0,.86,1.73,4.75,4.75,0,0,1-1.31-.93A4.55,4.55,0,0,1,1.48,11.11Zm7.39.8a4.6,4.6,0,0,1-1.31.93,5.83,5.83,0,0,0,.86-1.73h1.1A4.55,4.55,0,0,1,8.87,11.91Z"/><line class="cls-3" x1="37.92" y1="1.81" x2="37.92" y2="14.68"/><line class="cls-3" x1="64.92" y1="1.81" x2="64.92" y2="14.68"/></g></g></svg>