<svg xmlns="http://www.w3.org/2000/svg" viewBox="0 0 35.25 34.13"><g id="Слой_2" data-name="Слой 2"><g id="icons"><path d="M17.54,13a1.89,1.89,0,1,1-1.89,1.89A1.89,1.89,0,0,1,17.54,13Z"/><path d="M9.68,13a1.89,1.89,0,1,1-1.89,1.89A1.89,1.89,0,0,1,9.68,13Z"/><path d="M25.57,13.47a1.89,1.89,0,1,1-1.89,1.89A1.89,1.89,0,0,1,25.57,13.47Z"/><path d="M5.4,20.36a1.89,1.89,0,1,1-1.89,1.89A1.89,1.89,0,0,1,5.4,20.36Z"/><path d="M14,21.08A1.89,1.89,0,1,1,12.07,23,1.88,1.88,0,0,1,14,21.08Z"/><path d="M23.43,32c0-.29-.08-4.1-.1-5.7l.06-.06L27,22.76l-.26-.18.09-.37-.63-.42-.09.35-.1-.08-2.68,2.28-.8.07-.88.8L21,24.38l-1.16.16s-.08.24-.21.6c0,.09-.07.19-.1.3l0,.06-.12.33c-.36,1-.82,2.26-.9,2.34s.08.06.22.12l-.12.3.71.27.11-.3.3.11.42-1.73v0c-.06,1.68-.17,4.79-.18,5.08s-1,.74-.8,1a3,3,0,0,0,1.16.08v.29h1.13v-.3h.47v.3H23v-.27c.75,0,1.33,0,1.41-.12C24.62,32.62,23.46,32.39,23.43,32Z"/><path d="M22.69,20.72l0,0a1.88,1.88,0,1,0,.81,1.55A1.9,1.9,0,0,0,22.69,20.72Z"/><path d="M31.7,32.33c0-.29-.09-4.1-.11-5.7l3.66-3.52L35,22.93l.1-.37-.64-.41-.08.34-.11-.08-2.68,2.28-.8.07-.87.8-.7-.83-1.16.16s-.11.34-.28.81a.49.49,0,0,0,0,.11l0,.07a2,2,0,0,1-.08.22c-.37,1-.85,2.34-.93,2.42s.08.06.22.12l-.12.3.71.27.11-.3.3.11.42-1.73v0c-.06,1.68-.16,4.79-.18,5.08s-1,.74-.8,1a3,3,0,0,0,1.16.08v.29h1.13v-.3h.47v.29h1.13v-.27c.75,0,1.33,0,1.41-.12C32.88,33,31.72,32.74,31.7,32.33Z"/><path d="M29.84,20.71A1.89,1.89,0,1,1,28,22.6,1.89,1.89,0,0,1,29.84,20.71Z"/><polygon points="21.91 10.01 22.74 10.54 22.56 10.81 21.97 10.43 22.06 10.3 21.56 9.98 21.29 10.4 21.79 10.72 21.85 10.63 22.44 11.01 22.33 11.17 22.58 11.34 24.95 7.65 24.69 7.49 24.33 8.05 23.5 7.51 22.3 8.56 21.91 10.01"/><polygon points="7.83 9.18 8.69 10.41 9.63 10.11 9.72 10.42 9.06 10.63 9.01 10.48 8.44 10.66 8.6 11.14 9.16 10.96 9.13 10.86 9.79 10.64 9.85 10.83 10.14 10.74 8.82 6.57 8.53 6.66 8.73 7.29 7.79 7.59 7.83 9.18"/><polygon points="15.48 8.91 16.04 9.33 15.92 9.49 16.17 9.68 18.8 6.18 18.56 6 18.16 6.53 17.38 5.94 16.1 6.88 15.59 8.3 16.38 8.89 16.18 9.15 15.63 8.73 15.72 8.6 15.25 8.24 14.95 8.64 15.42 9 15.48 8.91"/><polygon points="30.64 10.93 31.62 11.07 31.57 11.39 30.88 11.29 30.9 11.13 30.32 11.04 30.24 11.54 30.83 11.63 30.84 11.52 31.53 11.62 31.5 11.82 31.8 11.86 32.45 7.53 32.15 7.49 32.05 8.14 31.08 8 30.41 9.44 30.64 10.93"/><polygon points="13.38 5.1 12.75 4.88 13.07 3.95 11.77 3.04 10.27 3 9.95 3.93 9.64 3.83 9.87 3.17 10.02 3.22 10.21 2.66 9.73 2.5 9.54 3.06 9.64 3.09 9.42 3.75 9.23 3.69 9.14 3.98 13.28 5.38 13.38 5.1"/><polygon points="18.8 1.86 19.12 2.48 18.94 2.58 19.08 2.85 22.98 0.84 22.84 0.58 22.25 0.88 21.8 0 20.23 0.3 19.16 1.35 19.61 2.23 19.33 2.38 19.01 1.76 19.15 1.68 18.88 1.16 18.43 1.39 18.7 1.92 18.8 1.86"/><polygon points="26.75 4.66 27.27 5.5 28.8 5.07 29.78 3.93 29.26 3.09 29.53 2.92 29.9 3.51 29.77 3.6 30.08 4.1 30.51 3.83 30.19 3.33 30.1 3.39 29.73 2.8 29.9 2.69 29.74 2.43 26.02 4.75 26.18 5.01 26.75 4.66"/><path d="M30.71,15.69l.1-.37-.63-.41-.09.34L30,15.17l-2.67,2.28-.81.07-.87.79-.69-.83-1.16.17s-.56,1.57-1,2.65a2.31,2.31,0,0,1,.91,1.09l.33-1.34v0c0,.87-.08,2.12-.11,3.16l1.76-1.5.06-.05.15-.57.5.33.63.4.26.17-.08.31,0,.08h0l.13.09c0-1.13,0-2.36-.05-3.11L31,15.87Z"/><path d="M27,26.52v-.27h.13l.37-1a.2.2,0,0,1-.06-.14c0-.13,0-1-.05-2.11l-.09.09L24,26.24h.24v.29h1.14v-.3h.46v.3Z"/><path d="M16,25.85a3.74,3.74,0,0,1-.15-.42h0l-.05-.16-.5-.07-.66-.1-.69.83L13,25.13l-.81-.07L9.54,22.78l-.11.07-.09-.34-.63.41.1.37-.26.19L12.21,27c0,1.6-.09,5.42-.11,5.71s-1.18.64-1,1c.08.14.66.14,1.41.12v.28h1.13v-.3h.47v.3h1.13v-.29a3,3,0,0,0,1.15-.08c.19-.26-.78-.59-.8-1s-.11-3.4-.18-5.08l0,0,.41,1.73.31-.11.11.3.7-.27-.11-.3c.13-.06.23-.11.21-.12S16.31,26.85,16,25.85Z"/><path d="M18.77,26.12c.17-.48.36-1,.54-1.52,0-.92-.2-5.62-.2-5.62L23,16.1l-.1-.18.26-.22-.4-.58-.23.14-.09-.17L19,17.19l-.79-.06-.65.78-.87-.79-.81-.07-2.66-2.26-.15,0-.22-.22-.63.41.23.25s-.23.23-.23.23L15.9,19c0,.74,0,2-.06,3.07a2,2,0,0,1,.22.91,2.08,2.08,0,0,1-.25,1c0,.39,0,.66,0,.73a.5.5,0,0,1,0,.13l.07,0,.25,0,.09.25c.11.31.23.65.36,1h.85v-.3h.47v.3Z"/><path d="M7.88,23.43l.43-.31h0l0-.09-.08-.3.26-.17.63-.41.5-.32.15.57.06.05,1.5,1.28c0-1.13-.1-2.95-.14-4.1v0l.42,1.73.3-.11.12.31.7-.27L12.61,21c.14-.05.23-.1.22-.11s-1.36-3.63-1.36-3.63L10.31,17l-.69.83-.87-.79L7.94,17,5.27,14.72l-.11.08-.09-.34-.63.41.1.37-.26.18,3.66,3.52c0,1.6-.1,5.42-.11,5.71a.44.44,0,0,1-.08.17l.35,1h.17v.27H9.4v-.29h.47v.29h.76L8.26,23.79Z"/><path d="M7.65,25.81c-.05-.12-.09-.24-.13-.36s0,0,0,0-.08-.22-.11-.32l-.2-.55L6,24.38l-.69.83-.87-.8-.81-.07L1,22.06l-.11.08-.09-.35-.63.42.1.37L0,22.76l3.66,3.52c0,1.6-.1,5.41-.11,5.7s-1.19.64-1,1c.09.13.67.14,1.41.12v.27H5.13v-.3h.46v.3H6.73v-.29A3,3,0,0,0,7.88,33c.18-.26-.78-.59-.8-1S7,28.64,6.9,27v0l.42,1.73.3-.11.12.3.7-.27-.11-.3c.13-.06.22-.1.21-.12S8,26.82,7.65,25.81Z"/></g></g></svg>