<svg xmlns="http://www.w3.org/2000/svg" viewBox="0 0 31.18 27.47"><g id="Слой_2" data-name="Слой 2"><g id="icons"><path d="M5,0A3.87,3.87,0,1,1,1.18,3.87,3.87,3.87,0,0,1,5,0Z"/><path d="M30.78,4.93H21.43V3.87H19V4.93H9.45V6.2h.63V9l-1.46-.7H6.45L5,10,3.55,8.31.42,8.9l-.2,7H1.54l.08,1.44h.2V25.7H1.55L0,26v1.43H1.32l1.54-.25,0,.25h1.7V18.82h1v8.65H7.27v-.25l1.54.25h1.32V26L8.59,25.7H8.33V17.29h.24l.32-6.4,1.19.54v7.35h9.13v2.35l-5,5.69H16L19.39,23v3.85h1V23l3.4,3.85h1.84L20.6,21.13V18.78H30.78V6.2h.4V4.93Zm-.89,12.92H11v-6l3.72,1.68,0-2.31L11,9.43V6.2H29.89Z"/><path d="M20.34,16.92a4.55,4.55,0,0,0,3.11-1.22l-1.91-2a1.86,1.86,0,1,1-1.36-3.26V7.7a4.61,4.61,0,0,0,.16,9.22Z"/><path d="M22.14,13.86l1.91,2a4.6,4.6,0,0,0,1.49-3.24H22.79A1.85,1.85,0,0,1,22.14,13.86Z"/><path d="M22.47,12.13v.18h2.75a1,1,0,0,0,0-.17,4.62,4.62,0,0,0-4.61-4.61h-.16v2.76h.16A1.85,1.85,0,0,1,22.47,12.13Z"/><rect x="26.73" y="12.72" width="2.31" height="0.56"/><rect x="26.73" y="13.67" width="2.31" height="0.56"/><rect x="26.73" y="14.65" width="2.31" height="0.56"/><rect x="26.73" y="15.65" width="2.31" height="0.56"/><rect x="26.73" y="16.63" width="2.31" height="0.56"/></g></g></svg>